<svg width="742" height="591" viewBox="0 0 742 591" fill="none" xmlns="http://www.w3.org/2000/svg">
<g clip-path="url(#clip0)">
<rect width="742" height="591" fill="white"/>
<path d="M1004.98 528.302C1000.32 -11.8496 325.664 -294.525 -11.0843 -368.344L-104.181 -377L-118 544.893C258.266 764.425 1009.63 1068.45 1004.98 528.302Z" fill="#C7CBD7" fill-opacity="0.8"/>
<path d="M756.984 469.556C753.481 126.149 245.834 -53.5655 -7.55141 -100.497L-77.6019 -106L-88 480.104C195.121 619.674 760.486 812.964 756.984 469.556Z" fill="#C7CBD7" fill-opacity="0.8"/>
<path d="M583.984 662.278C580.427 296.96 64.9702 105.78 -192.314 55.8544L-263.442 50L-274 673.499C13.4763 821.974 587.54 1027.6 583.984 662.278Z" fill="#C7CBD7" fill-opacity="0.8"/>
</g>
<defs>
<clipPath id="clip0">
<rect width="742" height="591" fill="white"/>
</clipPath>
</defs>
</svg>
