<svg width="18" height="18" viewBox="0 0 18 18" fill="none" xmlns="http://www.w3.org/2000/svg">
<path d="M2.25 2.25L15.75 15.75" stroke="#979797" stroke-width="2" stroke-linecap="round" stroke-linejoin="round"/>
<path d="M7.93797 7.94025C7.65651 8.22151 7.49831 8.60307 7.49817 9.00097C7.49803 9.39888 7.65596 9.78054 7.93722 10.062C8.21849 10.3435 8.60004 10.5017 8.99794 10.5018C9.39585 10.5019 9.77751 10.344 10.059 10.0628" stroke="#979797" stroke-linecap="round" stroke-linejoin="round"/>
<path d="M13.0178 13.0118C11.7945 13.8368 10.4565 14.25 9 14.25C6 14.25 3.50025 12.5003 1.5 9C2.52675 7.20375 3.68475 5.86875 4.974 4.99425M7.02225 4.02375C7.66531 3.83979 8.33115 3.74763 9 3.75C12 3.75 14.4998 5.49975 16.5 9C15.9165 10.0208 15.291 10.893 14.6228 11.616L7.02225 4.02375Z" stroke="#979797" stroke-linecap="round" stroke-linejoin="round"/>
</svg>
